<?xml version="1.0" encoding="UTF-8"?>
<svg version="1.1" xmlns="http://www.w3.org/2000/svg" width="1328" height="1328">
<path d="M0 0 C438.24 0 876.48 0 1328 0 C1328 438.24 1328 876.48 1328 1328 C889.76 1328 451.52 1328 0 1328 C0 889.76 0 451.52 0 0 Z " fill="#000000" transform="translate(0,0)"/>
<path d="M0 0 C25.45428084 13.3311403 43.91845964 52.62743924 58.3046875 76.20703125 C58.68044922 76.82143066 59.05621094 77.43583008 59.44335938 78.06884766 C64.11363051 85.74378519 68.17970028 93.68861374 72.10791016 101.76025391 C73.43437923 104.47218232 74.78221616 107.1730594 76.12890625 109.875 C100.37342975 158.96780777 100.37342975 158.96780777 95.55078125 174.66015625 C94.58132599 176.65229176 93.58784337 178.40110818 92.3046875 180.20703125 C91.48097656 181.40199219 91.48097656 181.40199219 90.640625 182.62109375 C87.67618821 185.90279468 84.47170818 187.85906446 80.6796875 190.08203125 C79.90044922 190.54834961 79.12121094 191.01466797 78.31835938 191.49511719 C68.17430318 197.53362004 57.92412645 203.39485013 47.68359375 209.26757812 C42.21844568 212.40450994 36.7618802 215.55628716 31.3046875 218.70703125 C24.70069784 222.51819703 18.09583761 226.32783321 11.48828125 230.1328125 C9.23956857 231.4283598 6.9908705 232.72393244 4.7421875 234.01953125 C3.64865967 234.64899658 2.55513184 235.27846191 1.4284668 235.92700195 C-3.86492907 238.97854582 -9.13889062 242.05650112 -14.37963867 245.19750977 C-59.22216258 271.99371875 -59.22216258 271.99371875 -86.9453125 266.20703125 C-94.6431252 263.8646816 -101.65246618 260.02423797 -108.6953125 256.20703125 C-109.71206055 255.65901855 -110.72880859 255.11100586 -111.77636719 254.54638672 C-166.07586721 225.16384887 -166.07586721 225.16384887 -175.6953125 198.20703125 C-176.04851563 197.26472656 -176.40171875 196.32242188 -176.765625 195.3515625 C-179.14804457 187.29337866 -178.86995098 178.97501643 -178.8984375 170.64453125 C-178.90413757 169.33983887 -178.90983765 168.03514648 -178.91571045 166.69091797 C-178.92616762 163.93407814 -178.93204357 161.17726698 -178.93554688 158.42041016 C-178.93991781 155.62567998 -178.95376518 152.83126091 -178.9765625 150.03662109 C-179.17443053 125.26510437 -179.25809771 102.10732165 -160.6953125 83.20703125 C-149.91344194 73.12528216 -136.93443555 66.32389477 -124.13867188 59.14648438 C-118.63169855 56.0447121 -113.16519881 52.87358942 -107.6953125 49.70703125 C-105.53535422 48.46059437 -103.37519745 47.2145014 -101.21484375 45.96875 C-96.81572175 43.43087132 -92.41736929 40.89166542 -88.01953125 38.3515625 C-77.21348985 32.11157688 -66.40249571 25.88151973 -55.5546875 19.71435547 C-50.79292764 17.00055589 -46.05698805 14.24775423 -41.33984375 11.45703125 C-40.26492676 10.82289307 -39.19000977 10.18875488 -38.08251953 9.53540039 C-36.00602864 8.30829663 -33.93258855 7.07601004 -31.86279297 5.83764648 C-21.41555885 -0.33007259 -11.97664662 -4.53786437 0 0 Z " fill="#7934FD" transform="translate(1037.6953125,335.79296875)"/>
<path d="M0 0 C7.39422929 7.15705589 9.05267222 14.66827626 9.26069641 24.72062683 C9.27554998 27.36787627 9.2798791 30.01373763 9.2746582 32.66088867 C9.27901276 34.12716937 9.28419837 35.5934478 9.29014587 37.0597229 C9.30347095 41.02077335 9.30412155 44.98172799 9.30158257 48.94279647 C9.30050789 52.26233467 9.30540918 55.58185388 9.310188 58.90138799 C9.32126194 66.74229738 9.32173329 74.58315885 9.31567383 82.42407227 C9.30964288 90.48052185 9.32192751 98.53679639 9.3432439 106.59321612 C9.36093294 113.53709459 9.36684959 120.48091773 9.36360615 127.42481786 C9.36180388 131.5600211 9.3643224 135.69509962 9.37832069 139.83028221 C9.39101303 143.72511759 9.3888488 147.61968308 9.37590981 151.51451492 C9.3735686 152.93253107 9.3761889 154.35056688 9.38453293 155.76856041 C9.45157585 168.06226711 8.21674585 180.23931828 2.375 191.25 C2.02872559 191.91837891 1.68245117 192.58675781 1.32568359 193.27539062 C-6.48186946 207.73770367 -19.63410428 216.5540378 -33.5234375 224.56591797 C-36.43059634 226.24934177 -39.32415532 227.95522255 -42.21875 229.66015625 C-79.73457435 251.65812107 -79.73457435 251.65812107 -97.875 251.375 C-98.84606689 251.36194824 -99.81713379 251.34889648 -100.81762695 251.33544922 C-116.11222625 250.96881982 -126.90672731 245.36184508 -140 238 C-141.1226123 237.3723877 -142.24522461 236.74477539 -143.40185547 236.09814453 C-147.08707252 234.03549029 -150.76357715 231.95769102 -154.4375 229.875 C-155.02337891 229.54392242 -155.60925781 229.21284485 -156.21289062 228.87173462 C-176.94503913 217.1280981 -197.01301754 204.23825999 -204 180 C-205.99953288 170.97928887 -206.29285657 162.1243259 -206.2746582 152.91918945 C-206.27901631 151.44435369 -206.28420308 149.96952017 -206.29014587 148.49468994 C-206.3034229 144.52588858 -206.30412773 140.55718309 -206.30158257 136.58836389 C-206.30050604 133.26323323 -206.30541308 129.93812143 -206.310188 126.61299485 C-206.3212421 118.76696565 -206.32174248 110.92098436 -206.31567383 103.07495117 C-206.3096246 95.00073082 -206.32197847 86.9266843 -206.3432439 78.85249358 C-206.36088704 71.89589404 -206.36685735 64.93934973 -206.36360615 57.98272866 C-206.36179893 53.8382281 -206.36437411 49.69385185 -206.37832069 45.54937172 C-206.39094032 41.65451172 -206.38891618 37.7599226 -206.37590981 33.86506653 C-206.37355419 32.44172255 -206.37624207 31.01835924 -206.38453293 29.59503746 C-206.43989876 19.34632819 -205.8565558 10.11960555 -199 2 C-192.6776389 -3.48834751 -186.1177962 -5.52647264 -178 -7 C-177.03779541 -7.17909912 -177.03779541 -7.17909912 -176.05615234 -7.36181641 C-170.06318441 -8.44875554 -164.0441163 -9.25548924 -158 -10 C-156.88012695 -10.13970215 -155.76025391 -10.2794043 -154.60644531 -10.42333984 C-31.74271557 -25.04997434 -31.74271557 -25.04997434 0 0 Z " fill="#7934FD" transform="translate(762,177)"/>
<path d="M0 0 C2.09366528 1.26840304 4.19753614 2.51873647 6.30175781 3.76953125 C24.2742457 14.57383752 37.82279431 27.74790722 43.60046387 48.49703979 C45.41729042 55.91454129 45.4814231 63.16534647 45.46386719 70.76220703 C45.47122422 72.2846844 45.47981514 73.80715623 45.48953247 75.32962036 C45.51157631 79.42867428 45.51468815 83.52752622 45.51278496 87.62663126 C45.51266455 91.06103228 45.52125645 94.49539156 45.52956247 97.92978084 C45.54873179 106.03475904 45.55170279 114.13963426 45.54492188 122.24462891 C45.53827346 130.58364387 45.56119236 138.92221739 45.59823561 147.26114285 C45.62898548 154.44622077 45.64028729 161.63115697 45.63639879 168.81629932 C45.63433816 173.09673526 45.63970515 177.37682677 45.66429138 181.65719986 C45.68664632 185.68107087 45.68460903 189.70422476 45.66436386 193.72809982 C45.6609701 195.19779271 45.665972 196.66753476 45.68034744 198.13716125 C45.77497115 208.53396717 44.41147642 215.92641909 37.73144531 224.05078125 C30.37107605 230.04177949 24.29072274 232.18861486 14.85644531 233.42578125 C13.17119751 233.66820557 13.17119751 233.66820557 11.4519043 233.91552734 C9.25894287 234.23060526 7.06503433 234.53917982 4.87011719 234.84033203 C1.76821208 235.27710685 -1.3098397 235.81383479 -4.39355469 236.36328125 C-23.17017129 239.09797704 -41.95671416 239.42689459 -60.89355469 239.42578125 C-62.39073029 239.42714081 -62.39073029 239.42714081 -63.91815186 239.42852783 C-81.91419433 239.42668053 -99.74421356 238.86978349 -117.60961914 236.61865234 C-119.65445766 236.36191233 -121.70053807 236.11782953 -123.74707031 235.875 C-155.11125452 232.07013702 -155.11125452 232.07013702 -165.41308594 220.59375 C-170.64395231 212.6084021 -170.39213782 204.70077954 -170.36010742 195.44726562 C-170.36581749 193.95481863 -170.37278421 192.46237601 -170.38090515 190.96994019 C-170.3987921 186.9322149 -170.39767534 182.89470752 -170.39196277 178.85695457 C-170.38886108 175.47302852 -170.39497499 172.08914373 -170.40100151 168.70522356 C-170.41503367 160.70937165 -170.41349945 152.71362657 -170.40209961 144.71777344 C-170.39064991 136.50625496 -170.4046438 128.29506431 -170.43149608 120.08358908 C-170.45376397 113.00550606 -170.46026478 105.92752508 -170.45441967 98.84940958 C-170.45107158 94.63473067 -170.453319 90.42026121 -170.4706707 86.20561218 C-170.48631306 82.23273597 -170.48199636 78.2603379 -170.46336555 74.2874794 C-170.45972529 72.84289252 -170.46265184 71.39826886 -170.47325134 69.95371628 C-170.60173498 50.96813005 -165.6986561 34.61311169 -152.95605469 20.23828125 C-146.36072241 13.64820901 -139.31706049 8.64207957 -131.26855469 3.98828125 C-130.18928711 3.35349854 -129.11001953 2.71871582 -127.99804688 2.06469727 C-124.65882096 0.10821843 -121.30903217 -1.82891854 -117.95605469 -3.76171875 C-116.90401855 -4.37225098 -115.85198242 -4.9827832 -114.76806641 -5.61181641 C-70.0764113 -31.50521583 -43.14480296 -26.19877192 0 0 Z " fill="#7934FD" transform="translate(725.9560546875,924.76171875)"/>
<path d="M0 0 C0.68803711 0.37012207 1.37607422 0.74024414 2.08496094 1.12158203 C13.42684945 7.25254694 24.54002275 13.7820653 35.6640625 20.296875 C42.05282079 24.0363464 48.4612239 27.74113956 54.875 31.4375 C55.95168945 32.05826416 57.02837891 32.67902832 58.13769531 33.31860352 C63.6397191 36.48985195 69.14357007 39.65790954 74.6484375 42.82421875 C80.05810763 45.93704124 85.46358244 49.05701079 90.86474609 52.18457031 C92.95281141 53.3936385 95.0416779 54.60132412 97.13134766 55.80761719 C100.11258197 57.53132815 103.08825521 59.26426281 106.0625 61 C106.93616211 61.50354004 107.80982422 62.00708008 108.70996094 62.52587891 C126.65391322 73.05304407 126.65391322 73.05304407 129.5546875 82.87890625 C133.31101905 100.77090654 122.71672194 119.2702505 115.00146484 134.93505859 C113.84239405 137.32497102 112.72744475 139.73336041 111.61328125 142.14453125 C97.9763213 171.47964496 81.405231 199.12210313 62 225 C61.54109375 225.61198242 61.0821875 226.22396484 60.609375 226.85449219 C57.78362485 230.6048444 54.90679814 234.31190887 52 238 C51.21753906 239.0003125 50.43507813 240.000625 49.62890625 241.03125 C43.0745647 249.25457229 37.61889422 255.7654153 27 258 C15.71954515 259.27359974 5.96783569 253.15405849 -3.375 247.5 C-5.49687191 246.23870153 -7.6192774 244.97830031 -9.7421875 243.71875 C-10.7950293 243.09097656 -11.84787109 242.46320313 -12.93261719 241.81640625 C-17.42440663 239.15651183 -21.95954568 236.57563791 -26.5 234 C-34.89378203 229.22352886 -43.23832464 224.36652727 -51.57299805 219.48779297 C-58.7049209 215.32045691 -65.86955788 211.21298698 -73.04931641 207.1288147 C-78.37308909 204.09788741 -83.68809519 201.05166884 -89 198 C-89.607229 197.65136902 -90.21445801 197.30273804 -90.84008789 196.94354248 C-94.50838536 194.83527417 -98.16904723 192.7145359 -101.82113647 190.57830811 C-103.49594668 189.60132326 -105.17621522 188.63371379 -106.85668945 187.66650391 C-124.88118134 177.07077049 -137.58174187 163.85249642 -143.45703125 143.44921875 C-144.63901981 138.11751497 -145.12737352 132.88234993 -145.16113281 127.42895508 C-145.17074036 126.16686722 -145.1803479 124.90477936 -145.19024658 123.60444641 C-145.19509674 122.2428099 -145.19937504 120.88117124 -145.203125 119.51953125 C-145.20595238 118.82381201 -145.20877975 118.12809277 -145.21169281 117.41129112 C-145.22662558 113.72755945 -145.23589168 110.04386633 -145.24023438 106.36010742 C-145.24570275 102.58915716 -145.26971294 98.81857089 -145.29820633 95.04773426 C-145.31699202 92.11774217 -145.32204674 89.18783489 -145.32357025 86.2577877 C-145.32656278 84.86935123 -145.3344735 83.480915 -145.34775543 82.09253883 C-145.45253859 70.29536476 -143.90169886 59.58046167 -138.5 49 C-138.15670654 48.32702881 -137.81341309 47.65405762 -137.4597168 46.96069336 C-126.6458971 26.80342742 -105.12303679 16.84035289 -86 6 C-84.98969727 5.42685059 -83.97939453 4.85370117 -82.93847656 4.26318359 C-80.02836163 2.62108122 -77.11023072 0.99452507 -74.1875 -0.625 C-73.32390869 -1.1094458 -72.46031738 -1.5938916 -71.57055664 -2.09301758 C-47.07769191 -15.4998624 -23.92628298 -12.94219399 0 0 Z " fill="#7934FD" transform="translate(1004,736)"/>
<path d="M0 0 C2.10894686 1.24942088 4.21833737 2.49809314 6.328125 3.74609375 C7.94557617 4.70684814 7.94557617 4.70684814 9.59570312 5.68701172 C14.95591898 8.85477478 20.35300394 11.95795391 25.75 15.0625 C27.92844419 16.31760632 30.10682931 17.5728152 32.28515625 18.828125 C33.36941895 19.45267578 34.45368164 20.07722656 35.57080078 20.72070312 C38.90114252 22.64006662 42.23009148 24.56182353 45.55859375 26.484375 C59.2834207 34.41123471 59.2834207 34.41123471 73.04199219 42.27929688 C77.32528067 44.71809932 81.60151152 47.1690724 85.875 49.625 C86.81424316 50.16398926 87.75348633 50.70297852 88.72119141 51.25830078 C110.37533256 63.72561739 130.6986971 76.25780638 138.40234375 101.5625 C139.52243072 106.45015224 140.00549063 111.13009636 140.03613281 116.14257812 C140.04574036 117.41830688 140.0553479 118.69403564 140.06524658 120.00842285 C140.07009811 121.39103005 140.07437606 122.77363937 140.078125 124.15625 C140.08095238 124.86142258 140.08377975 125.56659515 140.08669281 126.2931366 C140.10164652 130.03104012 140.11089788 133.76890549 140.11523438 137.50683594 C140.12068836 141.3280619 140.14466161 145.14892602 140.17320633 148.97003937 C140.19203279 151.94214827 140.19704897 154.91417385 140.19857025 157.88633728 C140.20155659 159.29265808 140.20944509 160.69897889 140.22275543 162.10523987 C140.33172054 174.51118154 139.14454172 186.75940967 133.25 197.875 C132.90590088 198.54192871 132.56180176 199.20885742 132.20727539 199.89599609 C126.0271654 211.3783043 116.26416684 219.89608116 105.1875 226.5 C104.0586438 227.1801416 104.0586438 227.1801416 102.90698242 227.87402344 C46.19602486 261.80528544 46.19602486 261.80528544 18.625 256.75 C1.21647048 252.06889603 -14.65061459 241.62659469 -29.98193359 232.48681641 C-35.33418416 229.31637499 -40.7312289 226.22408794 -46.125 223.125 C-55.53396471 217.70854465 -64.9146547 212.24565717 -74.28369141 206.76049805 C-81.15112003 202.75024205 -88.06508112 198.82961121 -95 194.9375 C-102.08363609 190.94553006 -109.1466036 186.92378311 -116.125 182.75 C-116.83640137 182.33403564 -117.54780273 181.91807129 -118.28076172 181.48950195 C-126.1776335 176.70222508 -132.68855198 170.77928447 -135.125 161.625 C-137.43820932 149.48499923 -131.79619528 138.5230928 -127.125 127.625 C-126.79935059 126.85494629 -126.47370117 126.08489258 -126.13818359 125.29150391 C-123.89908197 120.02268704 -121.53242081 114.81869031 -119.125 109.625 C-118.72442383 108.75149902 -118.32384766 107.87799805 -117.91113281 106.97802734 C-102.75056015 74.02202314 -83.66722236 43.27297807 -61.57910156 14.52148438 C-60.11346968 12.6099618 -58.66209925 10.68814595 -57.2109375 8.765625 C-39.47889277 -14.5358869 -24.55960938 -14.77895565 0 0 Z " fill="#7934FD" transform="translate(328.125,345.375)"/>
<path d="M0 0 C2.68205682 1.60225594 5.37560803 3.18281691 8.07373047 4.7578125 C16.46108001 9.69907764 24.05162434 14.70358157 30.89013672 21.7265625 C31.50759766 22.30019531 32.12505859 22.87382813 32.76123047 23.46484375 C37.05186764 27.77459289 39.60386286 32.73357805 42.20263672 38.1640625 C42.54053223 38.86789062 42.87842773 39.57171875 43.2265625 40.296875 C47.77532625 50.26500133 48.20331288 59.69502053 48.19091797 70.515625 C48.19481648 71.94656496 48.19915347 73.37750378 48.2039032 74.80844116 C48.21133017 77.79892738 48.21110149 80.7892955 48.20581055 83.77978516 C48.20004362 87.56835065 48.21689634 91.35642281 48.24015522 95.144907 C48.2550628 98.09991167 48.25574109 101.05480247 48.25264549 104.0098381 C48.25315098 105.40415797 48.2582392 106.79848558 48.26845741 108.1927681 C48.34864366 120.67009022 47.36323488 133.69633011 41.39013672 144.9140625 C41.04539307 145.57422363 40.70064941 146.23438477 40.34545898 146.91455078 C29.20362587 167.2237771 7.60547251 176.7458178 -11.76487732 187.6918335 C-17.57871496 190.98197143 -23.34761966 194.34695742 -29.10986328 197.7265625 C-37.70463586 202.75913661 -46.3329828 207.73047455 -54.98486328 212.6640625 C-64.37250909 218.01732533 -73.74980894 223.38767521 -83.10986328 228.7890625 C-84.14095215 229.38388428 -85.17204102 229.97870605 -86.234375 230.59155273 C-87.22453613 231.16333252 -88.21469727 231.7351123 -89.23486328 232.32421875 C-90.19739014 232.87988525 -91.15991699 233.43555176 -92.15161133 234.00805664 C-94.22544963 235.21278948 -96.29421335 236.42628033 -98.35913086 237.64624023 C-99.94697388 238.58318726 -99.94697388 238.58318726 -101.56689453 239.5390625 C-102.51798096 240.10367187 -103.46906738 240.66828125 -104.44897461 241.25 C-110.98393157 244.8763345 -117.61786288 246.86918994 -125.10986328 245.7265625 C-136.40024239 242.48419722 -143.29142478 233.73875947 -150.10986328 224.7265625 C-151.01465387 223.54935823 -151.91961193 222.37228267 -152.82470703 221.1953125 C-172.96482655 194.83520284 -190.62126733 166.63978632 -205.10791016 136.78808594 C-205.78451337 135.39597153 -206.46562005 134.00603824 -207.15087891 132.61816406 C-230.24971787 85.80817688 -230.24971787 85.80817688 -226.39111328 70.9609375 C-221.44295696 57.63283901 -207.87371994 51.39849341 -196.10986328 44.7265625 C-194.3867109 43.74091934 -192.6635628 42.75526858 -190.94067383 41.76916504 C-189.16715508 40.75483377 -187.39250107 39.74251184 -185.61767578 38.73046875 C-180.10304712 35.58338497 -174.60763001 32.40297572 -169.10986328 29.2265625 C-166.94328343 27.97641203 -164.77661655 26.72641238 -162.60986328 25.4765625 C-161.53736328 24.8578125 -160.46486328 24.2390625 -159.35986328 23.6015625 C-156.10986328 21.7265625 -152.85986328 19.8515625 -149.60986328 17.9765625 C-148.53655762 17.3573291 -147.46325195 16.7380957 -146.35742188 16.10009766 C-144.19895831 14.85486766 -142.04043005 13.60974978 -139.88183594 12.36474609 C-134.33911587 9.16769913 -128.7976632 5.96848655 -123.25830078 2.765625 C-117.82786576 -0.37374805 -112.3938138 -3.50675916 -106.95654297 -6.63427734 C-105.16427782 -7.66629005 -103.37310273 -8.70020043 -101.58349609 -9.73681641 C-63.31762085 -31.89542788 -35.83025114 -21.46678687 0 0 Z " fill="#7934FD" transform="translate(420.10986328125,748.2734375)"/>
<path d="M0 0 C3.22470283 1.89316806 6.46589603 3.7544937 9.71386719 5.60742188 C10.77798828 6.21763184 11.84210938 6.8278418 12.93847656 7.45654297 C14.95444886 8.61154021 16.97375054 9.76075496 18.99707031 10.90283203 C32.67328919 18.77925065 44.83462866 28.53522658 50.19042969 43.87304688 C52.31637601 53.87955585 52.48643335 63.8075764 52.45605469 73.97851562 C52.45740621 75.59507811 52.45935077 77.21164019 52.46185303 78.82820129 C52.46477887 82.19239222 52.46058768 85.55647596 52.45117188 88.9206543 C52.4397511 93.20721767 52.44636957 97.49353121 52.4583168 101.78008556 C52.46558092 105.10974474 52.46322715 108.4393457 52.45806122 111.76900673 C52.45673872 113.34887027 52.45832264 114.92873931 52.46302032 116.50859642 C52.50413646 134.20730201 49.62321601 149.41131606 36.77636719 162.59960938 C31.68362764 167.07691212 26.02400742 170.4739354 20.19042969 173.87304688 C19.25424805 174.4212207 18.31806641 174.96939453 17.35351562 175.53417969 C9.65944354 180.02782719 1.92807123 184.45499173 -5.80957031 188.87304688 C-7.82019816 190.02502211 -9.83062494 191.17734838 -11.84082031 192.33007812 C-18.45165667 196.11753053 -25.06256989 199.90432031 -31.70800781 203.63085938 C-32.42263184 204.03191895 -33.13725586 204.43297852 -33.87353516 204.84619141 C-44.48717822 210.47557132 -58.62429635 210.11121728 -70.00097656 207.21679688 C-86.26085284 201.9494516 -101.43486119 191.15556784 -116.04003906 182.50390625 C-118.5780747 181.00936481 -121.12716367 179.53724416 -123.68457031 178.07617188 C-141.3729953 167.94288142 -154.95626737 157.88753713 -161.80957031 137.87304688 C-162.75199426 133.28614845 -162.96856233 128.81273577 -162.98657227 124.14624023 C-162.99314346 123.39571381 -162.99971466 122.64518738 -163.00648499 121.87191772 C-163.02609974 119.40224075 -163.0378565 116.93262436 -163.04785156 114.46289062 C-163.05192709 113.61304659 -163.05600262 112.76320255 -163.06020164 111.88760567 C-163.08101604 107.38576633 -163.09533549 102.88395702 -163.10473633 98.38208008 C-163.11576748 93.76478248 -163.15014244 89.14797118 -163.18990803 84.53084469 C-163.21623097 80.95228771 -163.22444215 77.37384368 -163.22801781 73.79519844 C-163.23284645 72.09497368 -163.24435215 70.39475268 -163.2630558 68.69462395 C-163.43452257 52.0703458 -160.3183357 36.89640658 -148.74707031 24.18554688 C-137.11982407 13.59464215 -121.6263745 6.47760569 -108.07763672 -1.2578125 C-105.00823145 -3.01333071 -101.94491053 -4.77891512 -98.88378906 -6.54882812 C-93.87677981 -9.44011282 -88.85361777 -12.3007829 -83.80957031 -15.12695312 C-82.87854492 -15.65119873 -82.87854492 -15.65119873 -81.92871094 -16.18603516 C-51.7896727 -32.96366433 -26.12580431 -15.45972773 0 0 Z " fill="#FE8AFB" transform="translate(718.8095703125,571.126953125)"/>
<path d="M0 0 C4.45773224 2.00911876 8.66385402 4.58727982 11 9 C15.40436366 22.80284017 14.18636295 38.26496545 14.18530273 52.61499023 C14.18749352 55.92770161 14.20572757 59.24008135 14.22460938 62.55273438 C14.31685704 94.87540861 14.31685704 94.87540861 8 103 C2.45994706 107.18330528 -2.06037938 108.72563802 -9 108 C-12.3671875 106.77734375 -12.3671875 106.77734375 -15.875 104.9375 C-16.54080078 104.59025879 -17.20660156 104.24301758 -17.89257812 103.88525391 C-27.96163586 98.54811533 -37.77487827 92.72502717 -47.60888672 86.97119141 C-50.95742024 85.02475083 -54.32132068 83.10805822 -57.69140625 81.19921875 C-58.76261719 80.58771973 -59.83382813 79.9762207 -60.9375 79.34619141 C-62.95254431 78.19604189 -64.97179513 77.05321602 -66.99609375 75.91943359 C-82.84054683 66.81275652 -82.84054683 66.81275652 -86 59 C-86.54734234 54.62836966 -86.54308131 50.45953102 -85 46.3125 C-78.81057215 39.15597404 -71.31731563 34.57291363 -63.125 30 C-61.40092422 29.02297448 -59.67685816 28.04593131 -57.95336914 27.06787109 C-56.76641362 26.39507236 -55.57874422 25.72353158 -54.39038086 25.05322266 C-50.24361554 22.71373289 -46.11965861 20.3377805 -42.0078125 17.9375 C-35.69333452 14.25348955 -29.36029861 10.604357 -23 7 C-22.22575684 6.56059082 -21.45151367 6.12118164 -20.65380859 5.66845703 C-7.04670256 -1.95139455 -7.04670256 -1.95139455 0 0 Z " fill="#5736FC" transform="translate(1128,610)"/>
<path d="M0 0 C1.20381539 0.60568694 2.40014679 1.22640634 3.58984375 1.859375 C4.25830322 2.20436035 4.9267627 2.5493457 5.61547852 2.90478516 C15.73567565 8.19548347 25.63503227 13.90782559 35.52734375 19.609375 C36.33977539 20.07698242 37.15220703 20.54458984 37.98925781 21.02636719 C42.86417757 23.84017668 47.70821654 26.70111322 52.52734375 29.609375 C53.1812207 30.00108887 53.83509766 30.39280273 54.50878906 30.79638672 C70.25516436 40.29040962 70.25516436 40.29040962 72.52734375 45.609375 C73.50178415 51.35385833 73.68062199 57.95405128 70.19921875 62.92578125 C65.9034669 67.25164351 60.64842926 70.36625992 55.52734375 73.609375 C54.78806641 74.08648926 54.04878906 74.56360352 53.28710938 75.05517578 C42.77419815 81.83050006 32.03277576 88.10513149 21.02734375 94.046875 C19.45400269 94.897052 19.45400269 94.897052 17.84887695 95.7644043 C-5.08526773 107.98668472 -5.08526773 107.98668472 -12.47265625 106.609375 C-18.03109687 104.04161711 -21.81345126 100.98908655 -24.52580261 95.46417236 C-25.70161282 91.91906281 -25.76025731 88.62409291 -25.74731445 84.93261719 C-25.75242538 84.17581161 -25.75753632 83.41900604 -25.76280212 82.63926697 C-25.77666677 80.1448468 -25.77574317 77.65070406 -25.7734375 75.15625 C-25.77732728 73.41375629 -25.78166253 71.67126352 -25.78642273 69.92877197 C-25.79387906 66.27719043 -25.79359875 62.62570556 -25.78833008 58.97412109 C-25.78254837 54.31274557 -25.79943774 49.65176907 -25.82267475 44.99045944 C-25.83746777 41.39060176 -25.83827603 37.79083881 -25.83516502 34.19095612 C-25.83567584 32.4734951 -25.84086827 30.75602845 -25.85097694 29.03859711 C-25.95706331 8.48718285 -25.95706331 8.48718285 -20.53515625 2.453125 C-19.85453125 2.0096875 -19.17390625 1.56625 -18.47265625 1.109375 C-17.45171875 0.41328125 -17.45171875 0.41328125 -16.41015625 -0.296875 C-10.85401944 -3.43340385 -5.63661132 -2.25718069 0 0 Z " fill="#5736FD" transform="translate(869.47265625,991.390625)"/>
<path d="M0 0 C6.32070388 2.52403515 12.37344122 5.4009972 18.3984375 8.56323242 C19.3793335 9.07740723 20.36022949 9.59158203 21.37084961 10.12133789 C71.23747671 36.60498073 71.23747671 36.60498073 75.8359375 47.25073242 C76.66361357 52.56945082 76.33226093 57.37179371 74.9609375 62.56323242 C68.30876919 70.97626881 56.87140337 75.75177393 47.6953125 80.92651367 C41.57626538 84.38218244 35.51971665 87.94082312 29.4609375 91.50073242 C-1.48456194 109.62366113 -1.48456194 109.62366113 -11.1640625 107.25073242 C-16.17161091 104.56149346 -19.11058053 101.87377605 -21.22402954 96.61154175 C-22.28975579 92.8013533 -22.45956784 89.27378884 -22.45458984 85.3527832 C-22.46130707 84.58447174 -22.46802429 83.81616028 -22.47494507 83.02456665 C-22.49385877 80.49832598 -22.49784578 77.97235188 -22.5 75.44604492 C-22.50643218 73.68016452 -22.51316085 71.91428518 -22.52017212 70.14840698 C-22.53212805 66.45153331 -22.53585464 62.75475296 -22.53466797 59.05786133 C-22.53446479 54.33466769 -22.56177278 49.61207584 -22.59621239 44.88902473 C-22.61851394 41.24288211 -22.62250453 37.59688361 -22.62144852 33.95067978 C-22.62379934 32.21005046 -22.63259354 30.46941685 -22.64811325 28.72885513 C-22.66784136 26.28797182 -22.66190957 23.84837743 -22.64990234 21.4074707 C-22.66114136 20.6976001 -22.67238037 19.98772949 -22.68395996 19.25634766 C-22.60545198 12.935089 -20.53721454 7.60195145 -16.05078125 3.15698242 C-10.5065692 -0.38816205 -6.5934518 -2.28286367 0 0 Z " fill="#5736FD" transform="translate(866.1640625,230.749267578125)"/>
<path d="M0 0 C4.85244313 3.31311768 8.68699914 6.31490368 10.609375 12.08203125 C10.7155392 14.60480359 10.76660735 17.10035746 10.77050781 19.62353516 C10.77795517 20.77293579 10.77795517 20.77293579 10.78555298 21.94555664 C10.80016819 24.48324482 10.80697726 27.02087038 10.8125 29.55859375 C10.81825413 31.32636516 10.82401183 33.09413657 10.82977295 34.86190796 C10.8402826 38.57249237 10.84612479 42.28305514 10.84960938 45.99365234 C10.85507915 50.73128527 10.8790747 55.46862862 10.90758133 60.20617104 C10.9262796 63.86091931 10.93141723 67.51559903 10.93294525 71.17039108 C10.93595858 72.91577097 10.94394217 74.66115003 10.95713043 76.4064827 C11.10102648 96.92241095 11.10102648 96.92241095 6.29888916 102.64321899 C3.10325699 105.57141224 -0.17467398 107.23884105 -4.390625 108.08203125 C-11.01048895 107.74783833 -15.58103916 105.83961666 -21.328125 102.64453125 C-22.15948975 102.19424561 -22.99085449 101.74395996 -23.84741211 101.2800293 C-30.51213927 97.64178435 -37.06641292 93.82328245 -43.58203125 89.92578125 C-47.33371172 87.68956192 -51.11982882 85.5196164 -54.91796875 83.36328125 C-56.08006047 82.70152791 -57.24208807 82.03966196 -58.40405273 81.37768555 C-60.67196494 80.08575687 -62.94395182 78.80215564 -65.21899414 77.52270508 C-83.96481434 66.82734231 -83.96481434 66.82734231 -87.390625 59.08203125 C-87.99767114 54.30330756 -88.04714532 49.88746214 -86.390625 45.33203125 C-80.64752514 38.87104391 -73.73722161 34.08195158 -66.453125 29.51953125 C-65.50655029 28.92309814 -64.55997559 28.32666504 -63.5847168 27.7121582 C-49.08245566 18.67177225 -34.16985775 10.24248889 -18.828125 2.70703125 C-18.0853833 2.33151123 -17.3426416 1.95599121 -16.57739258 1.5690918 C-11.03218322 -1.06388073 -5.98100217 -2.29662665 0 0 Z " fill="#5736FD" transform="translate(472.390625,230.91796875)"/>
<path d="M0 0 C4.93461319 2.29107041 7.35281968 5.29390165 10 10 C11.34148992 13.83105043 11.15502315 17.78492307 11.16113281 21.79443359 C11.16858017 22.96591194 11.16858017 22.96591194 11.17617798 24.16105652 C11.19076215 26.74019253 11.19759495 29.31926706 11.203125 31.8984375 C11.20887904 33.69438681 11.21463674 35.49033611 11.22039795 37.2862854 C11.23089693 41.05056036 11.23674698 44.81481403 11.24023438 48.57910156 C11.24572022 53.39658962 11.26975481 58.21379522 11.29820633 63.03119469 C11.31685133 66.7407208 11.32203928 70.45017907 11.32357025 74.15974808 C11.32659253 75.9355181 11.33460671 77.71128704 11.34775543 79.48701096 C11.36485687 81.9738172 11.36292599 84.45993576 11.35644531 86.94677734 C11.3656601 87.67633133 11.37487488 88.40588531 11.3843689 89.157547 C11.34618116 93.84783672 10.47264251 97.01886799 8 101 C4.18694058 104.64727423 0.58453677 108.04811459 -4.92797852 107.97412109 C-10.79536791 107.43912452 -15.37796704 105.87323166 -20.625 103.25 C-21.43348389 102.85514404 -22.24196777 102.46028809 -23.07495117 102.0534668 C-82.04998859 72.76486627 -82.04998859 72.76486627 -86.7109375 60.0625 C-87.46458232 54.68514235 -87.82777637 49.83550413 -85.5625 44.8125 C-79.07411371 37.69110041 -71.12748947 33.23514507 -62.76953125 28.6484375 C-57.15898574 25.55982202 -51.64718478 22.30559108 -46.125 19.0625 C-36.16372787 13.22758008 -26.14725086 7.50590742 -16 2 C-14.95199219 1.38511719 -14.95199219 1.38511719 -13.8828125 0.7578125 C-9.53604801 -0.99171512 -4.57627092 -0.49075291 0 0 Z " fill="#5736FD" transform="translate(472,990)"/>
<path d="M0 0 C4.30067623 2.02588754 8.45591081 4.3086012 12.60546875 6.625 C13.39501953 7.06424805 14.18457031 7.50349609 14.99804688 7.95605469 C20.26730894 10.90358727 25.49884756 13.91346396 30.71826172 16.94824219 C33.76095375 18.71529858 36.8098979 20.47124456 39.859375 22.2265625 C45.79827108 25.65337696 51.71391927 29.11740513 57.60546875 32.625 C58.31751465 33.0482959 59.02956055 33.4715918 59.76318359 33.90771484 C71.2633408 40.83282893 71.2633408 40.83282893 73.60546875 47.625 C74.49512802 53.60118942 74.04196616 57.7283875 70.81933594 62.99609375 C68.90978511 65.55854811 66.70011124 66.97255899 63.98046875 68.625 C63.09343262 69.17003174 63.09343262 69.17003174 62.18847656 69.72607422 C60.0080527 71.05055545 57.80934945 72.33992027 55.60546875 73.625 C54.68862305 74.16157227 53.77177734 74.69814453 52.82714844 75.25097656 C47.43209279 78.39911315 42.02074537 81.51761424 36.59765625 84.6171875 C31.85846492 87.32624959 27.13611678 90.06144989 22.42578125 92.8203125 C21.25043321 93.50653213 20.07497876 94.19256955 18.89941406 94.87841797 C16.67474207 96.17757303 14.45259257 97.48106053 12.23339844 98.78955078 C-4.15875527 108.32950296 -4.15875527 108.32950296 -12.39453125 106.625 C-17.36398903 104.45699598 -21.33539917 101.77283021 -23.39453125 96.625 C-25.81692175 88.0732608 -25.68764842 79.42382044 -25.66015625 70.6171875 C-25.66150668 69.081227 -25.66345036 67.54526692 -25.66595459 66.00930786 C-25.66888629 62.80710741 -25.66467045 59.60501932 -25.65527344 56.40283203 C-25.64386063 52.31664053 -25.6504623 48.23071132 -25.66241837 44.14452934 C-25.66967352 40.97879081 -25.66733264 37.81311366 -25.66216278 34.6473732 C-25.66083738 33.14121595 -25.66243468 31.63505297 -25.66712189 30.12890244 C-25.71570428 10.14207063 -25.71570428 10.14207063 -19.39453125 2.625 C-12.87121746 -2.23550831 -7.62037322 -3.08673346 0 0 Z " fill="#5736FD" transform="translate(211.39453125,611.375)"/>
<path d="M0 0 C4.93757041 2.56022169 7.81696295 5.3791114 9.55932617 10.71191406 C10.55621288 15.88799287 10.26654355 21.27465571 10.29516602 26.53417969 C10.30666675 28.00432983 10.32708872 29.47443883 10.35668945 30.94433594 C10.66485491 46.266529 10.66485491 46.266529 6 53 C1.92813022 56.58432604 -2.52360043 57.92568533 -7.93359375 57.7109375 C-15.20201045 56.02577592 -21.63643745 51.7695087 -28 48 C-29.10988281 47.35804688 -30.21976563 46.71609375 -31.36328125 46.0546875 C-37.17245566 42.54874462 -41.89766318 39.20467364 -45 33 C-45.55008321 28.49112123 -45.44871217 24.95351336 -43.5 20.8125 C-37.61016383 14.18643431 -29.84091304 9.98819326 -22.1875 5.6875 C-21.24712891 5.15060547 -20.30675781 4.61371094 -19.33789062 4.06054688 C-12.37347859 0.11288515 -7.99100545 -1.76211915 0 0 Z " fill="#E52CF6" transform="translate(782,805)"/>
<path d="M0 0 C4.50502855 2.36753628 6.90743304 5.21061016 8.45605469 10.00292969 C9.43459731 15.03389163 9.12458225 20.27091913 9.13867188 25.38427734 C9.14834292 27.50658893 9.17937503 29.62791677 9.2109375 31.75 C9.26690616 38.84302155 9.20416024 44.88680576 5.8984375 51.27734375 C3.4609375 53.65234375 3.4609375 53.65234375 0.8984375 55.27734375 C0.2796875 55.68984375 -0.3390625 56.10234375 -0.9765625 56.52734375 C-5.53168284 58.13503328 -9.35840082 57.56595786 -13.79296875 55.84375 C-15.09200866 55.19281351 -16.38218435 54.52395736 -17.6640625 53.83984375 C-18.35153564 53.48293457 -19.03900879 53.12602539 -19.74731445 52.75830078 C-41.65550501 41.16945873 -41.65550501 41.16945873 -46.1015625 32.27734375 C-46.64159428 27.85085378 -46.53342655 24.25885296 -44.7265625 20.15234375 C-37.43349901 12.16470279 -27.16727286 7.27334117 -17.75170898 2.171875 C-16.46809743 1.47603941 -15.19474918 0.76125789 -13.92578125 0.0390625 C-9.62269221 -1.75773057 -4.36188727 -1.49990547 0 0 Z " fill="#E52CF7" transform="translate(783.1015625,466.72265625)"/>
<path d="M0 0 C26.91971221 12.65973693 26.91971221 12.65973693 32.3515625 23.5234375 C32.75641389 28.78650558 32.270739 32.09758925 29.3515625 36.5234375 C23.6942804 41.92809401 17.42846968 45.57040442 10.6015625 49.3359375 C9.56128906 49.92052734 8.52101563 50.50511719 7.44921875 51.10742188 C0.6246009 54.91702421 -4.68066723 57.68816139 -12.6484375 56.5234375 C-18.00081441 54.14460332 -20.38970684 50.88475261 -22.6484375 45.5234375 C-22.95353238 42.71975747 -23.11641637 40.14391653 -23.1171875 37.34375 C-23.12480103 36.57215546 -23.13241455 35.80056091 -23.14025879 35.00558472 C-23.15101803 33.38022073 -23.15392994 31.75478785 -23.14941406 30.12939453 C-23.1484428 27.66189455 -23.19008324 25.19751973 -23.234375 22.73046875 C-23.29662003 14.46864568 -23.32860302 8.03692071 -17.6484375 1.5234375 C-12.2422606 -3.28205308 -6.27552535 -2.53977364 0 0 Z " fill="#E62CF7" transform="translate(861.6484375,636.4765625)"/>
<path d="M0 0 C3.91717386 2.75982704 7.11753654 6.15002125 8.20678711 10.95071411 C8.37416198 13.15079743 8.39169096 15.29804798 8.34375 17.50390625 C8.34379028 18.30102524 8.34383057 19.09814423 8.34387207 19.91941833 C8.33854041 21.59439028 8.32105892 23.26936359 8.29199219 24.9440918 C8.25005398 27.49671425 8.2509373 30.04669948 8.2578125 32.59960938 C8.24732073 34.23439319 8.23438269 35.86916351 8.21875 37.50390625 C8.21854858 38.26030899 8.21834717 39.01671173 8.21813965 39.79603577 C8.11227187 44.57130906 7.27245287 47.87939418 4.75 51.9375 C0.33589404 56.02054801 -3.04802611 57.27288557 -9.10058594 57.18310547 C-12.75772474 56.76521796 -15.66915195 55.23326107 -18.875 53.5 C-19.55796143 53.14309082 -20.24092285 52.78618164 -20.94458008 52.41845703 C-40.72406471 41.88797728 -40.72406471 41.88797728 -46.25 33.9375 C-47.23004974 29.28871144 -46.84286163 24.67656078 -45.3125 20.1875 C-39.14387058 13.45808609 -31.17426088 8.86162702 -23.25 4.5 C-21.85007812 3.68885742 -21.85007812 3.68885742 -20.421875 2.86132812 C-13.33557255 -1.05296324 -7.8183484 -2.55599852 0 0 Z " fill="#E72CF8" transform="translate(480.25,636.0625)"/>
<path d="M0 0 C0.65331299 0.3503833 1.30662598 0.7007666 1.97973633 1.06176758 C3.01481323 1.59991089 3.01481323 1.59991089 4.07080078 2.14892578 C24.64559511 12.99805575 24.64559511 12.99805575 30.35473633 21.56176758 C30.92921921 25.96364942 30.89784035 30.15608658 29.29223633 34.31176758 C23.60691995 40.91407047 16.68086698 44.84680835 9.04223633 48.87426758 C7.54080078 49.67960938 7.54080078 49.67960938 6.0090332 50.5012207 C-1.27006531 54.39880688 -6.17272467 56.82214528 -14.64526367 55.56176758 C-18.66885684 53.31537987 -21.11441528 50.35804016 -23.64526367 46.56176758 C-23.86576145 43.65842336 -23.97330465 40.85345872 -23.98120117 37.94848633 C-23.98785797 37.10131546 -23.99451477 36.25414459 -24.00137329 35.38130188 C-24.01149778 33.58837046 -24.01619037 31.79540138 -24.01586914 30.00244141 C-24.02023118 27.2696247 -24.05652035 24.53843794 -24.09448242 21.8059082 C-24.10035301 20.06177308 -24.10432078 18.31763031 -24.10620117 16.57348633 C-24.1205722 15.76078781 -24.13494324 14.94808929 -24.14974976 14.11076355 C-24.10724099 8.78669748 -23.13489706 5.81146225 -19.64526367 1.56176758 C-17.96948242 0.10083008 -17.96948242 0.10083008 -16.33276367 -0.81323242 C-15.80038086 -1.1303418 -15.26799805 -1.44745117 -14.71948242 -1.77416992 C-9.27818501 -3.51620487 -4.90277832 -2.47727862 0 0 Z " fill="#E62CF8" transform="translate(559.645263671875,806.438232421875)"/>
<path d="M0 0 C5.993251 2.31813048 11.49670637 5.71859183 17 9 C18.09699219 9.63035156 19.19398438 10.26070313 20.32421875 10.91015625 C31.25659139 17.45764818 31.25659139 17.45764818 34 23 C35.17914502 28.7471714 34.46922448 33.20395086 31.38720703 38.2734375 C28.74890182 41.55715704 25.24459225 43.44080537 21.625 45.5 C20.82860107 45.96704346 20.03220215 46.43408691 19.21166992 46.9152832 C16.82109657 48.30211687 14.41527304 49.65672223 12 51 C11.30825684 51.38849121 10.61651367 51.77698242 9.90380859 52.17724609 C-1.68663968 58.60801942 -1.68663968 58.60801942 -9 58 C-11.07421875 57.3359375 -11.07421875 57.3359375 -12.6875 56.375 C-13.22761719 56.07335937 -13.76773438 55.77171875 -14.32421875 55.4609375 C-18.02493245 52.23467428 -20.18592909 48.76202209 -20.56518555 43.86572266 C-20.61147213 42.29900481 -20.63413418 40.7314618 -20.63671875 39.1640625 C-20.64766068 38.32587982 -20.6586026 37.48769714 -20.6698761 36.62411499 C-20.68568518 34.85754519 -20.69095379 33.09085311 -20.6862793 31.32421875 C-20.68749388 28.6385284 -20.74728982 25.95829333 -20.81054688 23.2734375 C-20.95535981 8.92774957 -20.95535981 8.92774957 -16.58203125 3.8359375 C-11.48231531 -0.71730934 -6.66323851 -1.16437652 0 0 Z " fill="#E62CF8" transform="translate(556,466)"/>
</svg>
