<?xml version="1.0" encoding="UTF-8"?>
<svg version="1.1" xmlns="http://www.w3.org/2000/svg" width="512" height="536">
<path d="M0 0 C1.14726563 -0.03738281 2.29453125 -0.07476562 3.4765625 -0.11328125 C12.13129969 0.83197562 19.80363791 5.38350861 27.3125 9.5625 C28.18277832 10.04630127 29.05305664 10.53010254 29.94970703 11.02856445 C42.08208879 17.86901817 52.56557447 24.6436064 57.375 38.3125 C58.33263486 42.94745271 58.54961827 47.48600488 58.578125 52.203125 C58.58382507 52.94778015 58.58952515 53.6924353 58.59539795 54.45965576 C58.60480206 56.02956746 58.61136357 57.5994985 58.61523438 59.16943359 C58.62491512 61.54170129 58.65597101 63.91309221 58.6875 66.28515625 C58.77425002 78.66436762 57.59530263 89.89374742 48.54516602 99.19262695 C42.64948468 104.57516439 36.40142802 108.51154486 29.4375 112.375 C27.71803169 113.34738728 25.99857367 114.3197933 24.27972412 115.29327393 C22.50255109 116.29815248 20.72285043 117.29844227 18.94287109 118.29833984 C14.29767221 120.91355211 9.68721795 123.58773122 5.07519531 126.26098633 C1.8156689 128.1494535 -1.44885624 130.02898363 -4.71484375 131.90625 C-8.34296735 133.99240655 -11.96068026 136.09414645 -15.56640625 138.21875 C-16.98164497 139.0418831 -18.39699876 139.86481842 -19.8125 140.6875 C-20.41723145 141.05085449 -21.02196289 141.41420898 -21.64501953 141.78857422 C-26.88631952 144.80647376 -31.42209705 145.67965049 -37.375 144.6875 C-61.07324798 134.33654111 -79.20527776 87.68886538 -88.25 65.125 C-90.32768918 58.89193247 -90.87848663 53.14646978 -88.1875 47.0625 C-81.52534455 39.91286976 -71.98840241 35.56650615 -63.5625 30.8125 C-61.06790286 29.39908275 -58.57476418 27.98310826 -56.08203125 26.56640625 C-55.1437851 26.03358788 -55.1437851 26.03358788 -54.18658447 25.49000549 C-49.02914845 22.55565555 -43.91042584 19.55791669 -38.7980957 16.5456543 C-11.10932946 0.23401027 -11.10932946 0.23401027 0 0 Z " fill="#7934FD" transform="translate(93.625,299.6875)"/>
<path d="M0 0 C1.13566406 -0.03738281 2.27132812 -0.07476562 3.44140625 -0.11328125 C13.75151161 0.47746424 22.96911003 6.60296845 31.625 11.6875 C32.85137132 12.39926946 34.07818591 13.11027567 35.30541992 13.82055664 C38.42100947 15.62645355 41.53049006 17.44259637 44.6385498 19.26141357 C47.44513174 20.90123672 50.25794943 22.53027365 53.0703125 24.16015625 C58.00208829 27.02171395 62.92453634 29.89868159 67.84033203 32.78759766 C69.51171943 33.76893679 71.18446601 34.74796658 72.85888672 35.72412109 C74.97195418 36.95602164 77.08043412 38.19537084 79.1875 39.4375 C80.88132812 40.43136719 80.88132812 40.43136719 82.609375 41.4453125 C86.44756841 43.97936837 88.96670831 45.90012493 90.4375 50.3125 C91.12038572 57.35202621 90.01341356 62.93106332 87.25 69.375 C86.89905273 70.21788574 86.54810547 71.06077148 86.18652344 71.92919922 C76.21217313 95.24921331 63.33130766 116.58985479 47.4375 136.3125 C47.02064941 136.84681641 46.60379883 137.38113281 46.17431641 137.93164062 C42.61993197 142.39045887 39.9722165 144.2753381 34.4375 145.3125 C26.59115769 144.86726206 20.05710017 140.66847925 13.4375 136.8125 C12.33027588 136.17957031 11.22305176 135.54664063 10.08227539 134.89453125 C6.85943085 133.04715113 3.64666794 131.18351627 0.4375 129.3125 C-0.36316895 128.84714844 -1.16383789 128.38179687 -1.98876953 127.90234375 C-5.37061047 125.93326821 -8.74076926 123.94616843 -12.1015625 121.94140625 C-15.56992221 119.88020502 -19.07250812 117.88569598 -22.5859375 115.90234375 C-23.64611084 115.29841797 -24.70628418 114.69449219 -25.79858398 114.07226562 C-27.86545861 112.89578791 -29.93756409 111.72843112 -32.01586914 110.57226562 C-40.83991248 105.52193875 -49.84938932 99.60923669 -54.125 90.0625 C-54.58003906 89.08796875 -55.03507812 88.1134375 -55.50390625 87.109375 C-57.46934498 81.91655534 -57.72185192 76.99399667 -57.73046875 71.484375 C-57.73379715 70.73593323 -57.73712555 69.98749146 -57.74055481 69.21636963 C-57.74560247 67.63627737 -57.7479638 66.05617453 -57.74780273 64.47607422 C-57.74998031 62.08412644 -57.76813414 59.69264704 -57.78710938 57.30078125 C-57.86012452 38.30020521 -57.86012452 38.30020521 -52.9375 30.1875 C-52.49148438 29.42179687 -52.04546875 28.65609375 -51.5859375 27.8671875 C-46.04081657 20.86620471 -38.91710643 16.45558703 -31.1875 12.1875 C-29.86492187 11.43919922 -29.86492187 11.43919922 -28.515625 10.67578125 C-9.87893168 0.20972034 -9.87893168 0.20972034 0 0 Z " fill="#7934FD" transform="translate(417.5625,299.6875)"/>
<path d="M0 0 C0.75023437 -0.02578125 1.50046875 -0.0515625 2.2734375 -0.078125 C9.93265647 0.99060323 15.11329413 8.58252691 19.625 14.25 C32.86612654 31.80650323 43.84870402 51.10640963 52.625 71.25 C53.15222656 72.43464844 53.67945313 73.61929688 54.22265625 74.83984375 C57.33881421 82.27869438 59.61726584 89.2693354 56.5 97.0625 C50.83542663 103.67116893 43.37019378 107.42975687 35.875 111.625 C33.9951987 112.68580588 32.11657288 113.74867425 30.23796082 114.81158447 C28.95191744 115.53898517 27.66546575 116.26566441 26.37861633 116.99163818 C20.93764819 120.06318633 15.52960703 123.1890971 10.1262207 126.32617188 C-21.05161863 144.42691408 -21.05161863 144.42691408 -31.4375 144.5625 C-32.15099609 144.59150391 -32.86449219 144.62050781 -33.59960938 144.65039062 C-43.81752647 144.76909744 -52.32954819 139.4150592 -60.9375 134.4375 C-61.81857422 133.94185547 -62.69964844 133.44621094 -63.60742188 132.93554688 C-75.11752845 126.3352865 -84.84456632 119.1259694 -89.375 106.25 C-90.3208721 101.67056986 -90.53539272 97.20305077 -90.54296875 92.54296875 C-90.54629715 91.81813797 -90.54962555 91.09330719 -90.55305481 90.34651184 C-90.55809399 88.81947458 -90.56046407 87.29242642 -90.56030273 85.76538086 C-90.56248374 83.45472639 -90.58065615 81.14455427 -90.59960938 78.83398438 C-90.67347236 60.2391025 -90.67347236 60.2391025 -85.75 52.125 C-85.30398438 51.35929687 -84.85796875 50.59359375 -84.3984375 49.8046875 C-78.72638071 42.64344205 -71.36267566 38.18439079 -63.5 33.75 C-61.94526978 32.85812988 -61.94526978 32.85812988 -60.35913086 31.94824219 C-58.16092008 30.68779645 -55.96059321 29.43103488 -53.75830078 28.17773438 C-49.25010081 25.60905585 -44.75666923 23.01514032 -40.26342773 20.42041016 C-38.0593659 19.14777194 -35.85445983 17.87659465 -33.64868164 16.60693359 C-26.52002418 12.50198023 -19.41592522 8.35819453 -12.35961914 4.12988281 C-8.15868574 1.63182486 -4.90111398 0.10036411 0 0 Z " fill="#7934FD" transform="translate(450.375,90.75)"/>
<path d="M0 0 C0.85746826 0.49314697 1.71493652 0.98629395 2.59838867 1.49438477 C3.56212402 2.0408667 4.52585937 2.58734863 5.51879883 3.15039062 C6.50799316 3.71894775 7.4971875 4.28750488 8.51635742 4.87329102 C10.41478595 5.92773823 12.31453071 6.97981916 14.21557617 8.02954102 C28.75315693 16.13362322 43.21611766 24.35635563 57.51635742 32.87329102 C58.64895996 33.54448975 58.64895996 33.54448975 59.80444336 34.22924805 C70.32636213 40.5132404 78.65914929 46.80396236 82.51635742 58.87329102 C83.43817941 63.45799853 83.67674797 67.91890291 83.68432617 72.58032227 C83.68765457 73.30515305 83.69098297 74.02998383 83.69441223 74.77677917 C83.69945142 76.30381643 83.70182149 77.83086459 83.70166016 79.35791016 C83.70384116 81.66856463 83.72201358 83.97873675 83.7409668 86.28930664 C83.79168326 99.07892615 82.88551383 110.14570157 73.61401367 119.86816406 C67.87396641 125.04502932 61.84507195 128.91638801 55.07885742 132.62329102 C54.10625977 133.1737207 53.13366211 133.72415039 52.1315918 134.29125977 C40.47639624 140.78453504 30.07437928 145.35049939 16.51635742 142.87329102 C11.52136648 141.30347085 7.05059837 138.71971809 2.55981445 136.07055664 C0.51355251 134.87164761 -1.55641488 133.73324954 -3.64379883 132.60766602 C-14.46069631 126.75025576 -25.06509496 120.51063464 -35.66723633 114.27563477 C-39.28634022 112.14888355 -42.91945211 110.05442511 -46.58129883 108.00219727 C-47.35272217 107.56456055 -48.12414551 107.12692383 -48.91894531 106.67602539 C-50.3173445 105.88397858 -51.72134314 105.10168479 -53.13232422 104.33227539 C-57.78439086 101.67429491 -61.94725151 98.70545569 -64.48364258 93.87329102 C-66.1948853 85.72653053 -63.40131548 78.72132243 -60.10864258 71.37329102 C-59.42753418 69.80744263 -59.42753418 69.80744263 -58.73266602 68.20996094 C-48.22199593 44.40841415 -34.3277402 17.29737673 -14.48364258 -0.12670898 C-9.50222836 -1.78718039 -4.89019838 -2.21844741 0 0 Z " fill="#7934FD" transform="translate(68.483642578125,92.126708984375)"/>
<path d="M0 0 C6.92117089 6.53594802 11.14846947 15.23781691 11.49789429 24.8223877 C11.51565522 26.31054219 11.52277415 27.79884995 11.52099609 29.28710938 C11.52771332 30.10594101 11.53443054 30.92477264 11.54135132 31.76841736 C11.5602413 34.45635152 11.56425042 37.14403498 11.56640625 39.83203125 C11.57283862 41.71097921 11.5795673 43.58992618 11.58657837 45.46887207 C11.59852728 49.39935631 11.60226147 53.3297528 11.60107422 57.26025391 C11.60087075 62.28729344 11.6282126 67.31376946 11.66261864 72.34067535 C11.68489053 76.21838958 11.68891173 80.09596799 11.68785477 83.97373962 C11.69020875 85.82683765 11.69902084 87.67993953 11.7145195 89.53297424 C11.73419298 92.12719958 11.72833738 94.72020671 11.71630859 97.31445312 C11.72754761 98.07310165 11.73878662 98.83175018 11.75036621 99.61338806 C11.68609684 105.08889933 10.36316654 108.28825361 7.23046875 112.80078125 C1.72982672 116.95234041 -3.5881595 117.72884146 -10.33203125 118.48828125 C-11.31365234 118.60856689 -12.29527344 118.72885254 -13.30664062 118.8527832 C-16.12576683 119.18939875 -18.94626687 119.5010963 -21.76953125 119.80078125 C-23.63931641 120.001875 -23.63931641 120.001875 -25.546875 120.20703125 C-81.95294521 125.12974283 -81.95294521 125.12974283 -99.51171875 114.07421875 C-103.70958288 109.84730365 -105.10424292 105.78579175 -105.17611694 99.84570312 C-105.17004425 99.09909424 -105.16397156 98.35248535 -105.15771484 97.58325195 C-105.1629718 96.78074509 -105.16822876 95.97823822 -105.17364502 95.15141296 C-105.18680126 92.50959551 -105.1781184 89.86838567 -105.16796875 87.2265625 C-105.16999174 85.37818792 -105.17290505 83.52981412 -105.17666626 81.68144226 C-105.18108454 77.80879105 -105.17467823 73.9363477 -105.16064453 70.0637207 C-105.14361292 65.12566838 -105.15335865 60.18810746 -105.17136192 55.25007343 C-105.18226449 51.43137493 -105.17872288 47.61279053 -105.17097855 43.79408836 C-105.16899126 41.97501758 -105.17138351 40.15593609 -105.17841721 38.33687782 C-105.25518784 12.88767004 -105.25518784 12.88767004 -95.76953125 2.80078125 C-90.19204703 -2.69680776 -84.10123111 -6.61801201 -77.26953125 -10.38671875 C-75.92181641 -11.14758789 -75.92181641 -11.14758789 -74.546875 -11.92382812 C-46.3145985 -27.76595708 -24.58760736 -19.52443293 0 0 Z " fill="#7934FD" transform="translate(302.76953125,415.19921875)"/>
<path d="M0 0 C0.93249573 -0.00570007 1.86499146 -0.01140015 2.82574463 -0.01727295 C4.79218435 -0.02665939 6.75863935 -0.0332314 8.72509766 -0.03710938 C11.6542716 -0.0467148 14.58271174 -0.07775813 17.51171875 -0.109375 C27.42515689 -0.16568476 37.13334733 0.2314617 46.96875 1.53125 C47.86946228 1.64797058 48.77017456 1.76469116 49.69818115 1.88494873 C57.59286518 3.04252648 63.59629644 4.90097375 68.953125 11.203125 C70.18646729 14.90315187 70.10865068 18.33390381 70.11425781 22.18774414 C70.12170517 23.40788712 70.12170517 23.40788712 70.12930298 24.65267944 C70.14392371 27.34788864 70.1507285 30.04303887 70.15625 32.73828125 C70.16200407 34.61575827 70.16776178 36.49323528 70.17352295 38.37071228 C70.18403444 42.31249261 70.1898753 46.25425255 70.19335938 50.19604492 C70.19882678 55.22727479 70.22281651 60.25823167 70.25133133 65.28937626 C70.27003687 69.17149111 70.27516764 73.05354146 70.27669525 76.93569756 C70.2797074 78.78910238 70.28768691 80.64250646 70.30088043 82.49586678 C70.39447838 96.66203225 69.80456686 108.10370778 59.953125 119.203125 C56.87142277 121.99959926 53.52221811 124.0733848 49.953125 126.203125 C49.18532715 126.66541504 48.4175293 127.12770508 47.62646484 127.60400391 C44.93267013 129.21683948 42.22706293 130.80764128 39.515625 132.390625 C38.64599121 132.90222168 37.77635742 133.41381836 36.88037109 133.94091797 C26.77379804 139.71907279 16.53462407 144.44024757 4.73217773 141.68457031 C-1.62128886 139.93880633 -7.14385387 137.32059492 -12.859375 134.078125 C-13.72449707 133.59239014 -14.58961914 133.10665527 -15.48095703 132.60620117 C-28.25442436 125.34017767 -39.85847888 118.67601944 -45.046875 104.203125 C-46.17186273 99.82485605 -46.20138393 95.51166215 -46.20800781 91.01977539 C-46.21297272 90.20938309 -46.21793762 89.39899078 -46.22305298 88.56404114 C-46.23761478 85.89294577 -46.24446556 83.22190973 -46.25 80.55078125 C-46.25575509 78.68900044 -46.26151278 76.82721964 -46.26727295 74.96543884 C-46.27776501 71.065905 -46.28361984 67.16639167 -46.28710938 63.2668457 C-46.29259925 58.27563545 -46.31664538 53.28469727 -46.34508133 48.29357243 C-46.36372116 44.44936839 -46.36891396 40.60522983 -46.37044525 36.76098442 C-46.37346778 34.92101995 -46.38148281 33.08105653 -46.39463043 31.24113655 C-46.41172389 28.66583727 -46.40980308 26.09120245 -46.40332031 23.51586914 C-46.4125351 22.75983398 -46.42174988 22.00379883 -46.4312439 21.22485352 C-46.38126313 14.87255071 -44.76277255 10.97922948 -40.375 6.4375 C-36.7963338 3.67958832 -33.19634746 3.04764831 -28.796875 2.453125 C-28.09691406 2.34097656 -27.39695313 2.22882813 -26.67578125 2.11328125 C-17.80656934 0.74008815 -8.9717129 0.04414616 0 0 Z " fill="#7934FD" transform="translate(244.046875,-0.203125)"/>
<path d="M0 0 C1.05509766 0.58265625 2.11019531 1.1653125 3.19726562 1.765625 C26.47676336 14.83079542 26.47676336 14.83079542 30.11540222 27.11691284 C30.58463944 29.35562647 30.70990491 31.39016651 30.73950195 33.67626953 C30.75875481 34.97880173 30.75875481 34.97880173 30.77839661 36.30764771 C30.78578354 37.23995209 30.79317047 38.17225647 30.80078125 39.1328125 C30.808853 40.102258 30.81692474 41.07170349 30.82524109 42.07052612 C30.83906254 44.12317121 30.84979335 46.1758391 30.85766602 48.22851562 C30.86916321 50.31549878 30.88957894 52.40245306 30.91918945 54.48925781 C30.96212704 57.51647783 30.97807321 60.54282471 30.98828125 63.5703125 C31.00578934 64.4904715 31.02329742 65.41063049 31.04133606 66.3586731 C31.01085009 75.60447507 28.16002645 83.56810047 21.76220703 90.34716797 C17.2907064 94.21518971 12.15973502 96.97148988 7 99.8125 C5.82492077 100.4688456 4.65019931 101.12583214 3.47583008 101.78344727 C1.19070388 103.05519885 -1.09862933 104.31942751 -3.39257812 105.57519531 C-5.8809562 106.94388306 -8.34293596 108.34457682 -10.796875 109.7734375 C-18.28939219 113.92652961 -24.87023787 115.88904193 -33.4375 114.25 C-41.72439788 111.63486469 -49.09787836 107.23866835 -56.5625 102.875 C-57.69042969 102.22789062 -58.81835938 101.58078125 -59.98046875 100.9140625 C-76.34383665 91.42139527 -76.34383665 91.42139527 -80.8125 85.3125 C-81.27398437 84.70535156 -81.73546875 84.09820312 -82.2109375 83.47265625 C-85.64093799 77.2571458 -85.75661048 71.00584567 -85.7734375 64.07421875 C-85.7800943 63.1090181 -85.7867511 62.14381744 -85.79360962 61.14936829 C-85.80369706 59.11465346 -85.80842785 57.07990582 -85.80810547 55.04516602 C-85.81247203 51.95728126 -85.84881558 48.87083492 -85.88671875 45.78320312 C-85.89258931 43.79687983 -85.8965571 41.81054983 -85.8984375 39.82421875 C-85.91280853 38.91347092 -85.92717957 38.00272308 -85.94198608 37.06437683 C-85.88134303 28.41539694 -83.35941908 20.31992351 -77.36523438 13.89892578 C-73.22250212 10.35535769 -68.43690032 7.82184182 -63.6875 5.1875 C-61.60907687 4.00964051 -59.53094882 2.83126016 -57.453125 1.65234375 C-56.44507813 1.08644531 -55.43703125 0.52054688 -54.3984375 -0.0625 C-50.76384796 -2.13392834 -47.19327186 -4.30077874 -43.63378906 -6.49829102 C-27.67006698 -15.59633494 -14.54018095 -8.21259155 0 0 Z " fill="#FE8AFC" transform="translate(283.4375,215.75)"/>
<path d="M0 0 C2.7750123 2.23542657 3.24504687 3.3886188 4.25 6.8125 C4.5475531 10.04098689 4.55407773 13.25554298 4.55078125 16.49609375 C4.55506638 17.4292189 4.5593515 18.36234406 4.56376648 19.32374573 C4.5694977 21.29305207 4.57001896 23.26237957 4.56567383 25.23168945 C4.5625145 28.23620898 4.58598598 31.23974275 4.61132812 34.24414062 C4.61360138 36.1614571 4.61430449 38.0787762 4.61328125 39.99609375 C4.622491 40.89001328 4.63170074 41.7839328 4.64118958 42.7049408 C4.60338536 47.82923019 4.09068532 51.36809599 1.25 55.8125 C-1.31390999 57.99657147 -2.80399132 57.81109366 -6.19921875 57.72265625 C-12.09424213 56.91251561 -16.8283229 53.79726453 -21.875 50.8125 C-23.38936646 49.93380249 -23.38936646 49.93380249 -24.93432617 49.03735352 C-27.88451377 47.31450434 -30.81993109 45.56930742 -33.75 43.8125 C-34.54067871 43.34054199 -35.33135742 42.86858398 -36.14599609 42.38232422 C-48.3610953 35.02881783 -48.3610953 35.02881783 -49.75 30.8125 C-49.9494357 26.75730737 -49.97821429 24.28227444 -47.33984375 21.125 C-39.40819944 14.56523055 -29.72935425 9.77905993 -20.75 4.8125 C-20.10933594 4.45639648 -19.46867187 4.10029297 -18.80859375 3.73339844 C-6.73100817 -2.90657171 -6.73100817 -2.90657171 0 0 Z " fill="#5737FE" transform="translate(155.75,36.1875)"/>
<path d="M0 0 C2.77106187 1.445523 5.50158812 2.94848518 8.22607422 4.47998047 C9.2024585 5.02283691 10.17884277 5.56569336 11.18481445 6.125 C14.01870156 7.70942292 16.84293564 9.30961278 19.66357422 10.91748047 C20.39318359 11.33078613 21.12279297 11.7440918 21.87451172 12.16992188 C34.73720982 19.51496158 34.73720982 19.51496158 37.66357422 24.91748047 C38.13444906 27.91176154 37.82739521 30.12092032 36.66357422 32.91748047 C28.0742395 42.52935504 6.31507818 56.02382269 -6.71142578 57.22998047 C-10.95940341 56.8637755 -12.43814966 55.98624342 -15.33642578 52.91748047 C-16.25811119 50.14498348 -16.46633577 47.59607858 -16.48168945 44.68725586 C-16.48806931 43.86282486 -16.49444916 43.03839386 -16.50102234 42.1889801 C-16.50213516 41.30661179 -16.50324799 40.42424347 -16.50439453 39.51513672 C-16.50772293 38.60042099 -16.51105133 37.68570526 -16.51448059 36.74327087 C-16.51953759 34.81086733 -16.5218893 32.87845508 -16.52172852 30.94604492 C-16.52391516 27.99431954 -16.54208429 25.0429679 -16.56103516 22.09130859 C-16.56396932 20.21175258 -16.56595396 18.33219479 -16.56689453 16.45263672 C-16.57408005 15.57229263 -16.58126556 14.69194855 -16.58866882 13.78492737 C-16.5692408 8.55897928 -16.34924218 4.36786565 -12.89892578 0.16748047 C-8.70127491 -3.19064023 -4.56428602 -2.11473816 0 0 Z " fill="#5737FE" transform="translate(368.33642578125,443.08251953125)"/>
<path d="M0 0 C0.91378418 0.49000488 1.82756836 0.98000977 2.76904297 1.48486328 C8.49500998 4.60292444 14.10245776 7.87344836 19.5625 11.4375 C20.17101807 11.82929443 20.77953613 12.22108887 21.40649414 12.62475586 C24.91722088 15.00383829 27.17843154 17.18256885 28.9375 21.0625 C28.9375 25.3184787 28.57453262 27.3397987 25.73901367 30.55664062 C22.97520954 33.02877009 20.32823345 34.82135588 17.11328125 36.65625 C16.00146484 37.29433594 14.88964844 37.93242188 13.74414062 38.58984375 C12.88139526 39.07686768 12.88139526 39.07686768 12.0012207 39.57373047 C10.26758492 40.55257125 8.5409678 41.543809 6.81445312 42.53515625 C-11.59345791 53.03880577 -11.59345791 53.03880577 -16.9375 53.125 C-20.35805915 51.96200989 -21.88098682 50.91524801 -24.0625 48.0625 C-24.97287701 45.33136896 -25.19763618 43.68400859 -25.22363281 40.86987305 C-25.23324036 40.02857346 -25.2428479 39.18727386 -25.25274658 38.32048035 C-25.25699646 37.41421402 -25.26124634 36.50794769 -25.265625 35.57421875 C-25.27132507 34.6382637 -25.27702515 33.70230865 -25.28289795 32.73799133 C-25.29234483 30.75673553 -25.29888069 28.77546403 -25.30273438 26.79418945 C-25.31242937 23.77201714 -25.34345138 20.75052803 -25.375 17.72851562 C-25.38153139 15.80208736 -25.38678132 13.87565425 -25.390625 11.94921875 C-25.4029718 11.04902512 -25.4153186 10.14883148 -25.42803955 9.22135925 C-25.40987908 4.07319987 -24.92434407 0.52586587 -22.0625 -3.9375 C-15.71960208 -9.34070934 -5.98884697 -3.2651401 0 0 Z " fill="#5837FE" transform="translate(377.0625,40.9375)"/>
<path d="M0 0 C2.81005071 2.27841949 3.84898818 3.54696453 5 7 C5.10032205 8.39497128 5.14821351 9.79411257 5.16113281 11.19262695 C5.17074036 12.03392654 5.1803479 12.87522614 5.19024658 13.74201965 C5.19449646 14.64828598 5.19874634 15.55455231 5.203125 16.48828125 C5.20882507 17.4242363 5.21452515 18.36019135 5.22039795 19.32450867 C5.22984483 21.30576447 5.23638069 23.28703597 5.24023438 25.26831055 C5.24992937 28.29048286 5.28095138 31.31197197 5.3125 34.33398438 C5.31903139 36.26041264 5.32428132 38.18684575 5.328125 40.11328125 C5.3404718 41.01347488 5.3528186 41.91366852 5.36553955 42.84114075 C5.34745617 47.96744487 4.92799093 51.59643544 2 56 C-1.76478856 58.50985904 -3.52752148 58.39012274 -8 58 C-10.5649885 57.02121651 -12.78918435 56.03247553 -15.1875 54.75 C-15.8587793 54.40227539 -16.53005859 54.05455078 -17.22167969 53.69628906 C-23.16606912 50.56069791 -28.97036755 47.17769501 -34.75 43.75 C-35.60746826 43.24307617 -36.46493652 42.73615234 -37.34838867 42.21386719 C-47.36162126 36.16339461 -47.36162126 36.16339461 -49.125 30.1875 C-49.35659684 26.87277021 -48.86811445 25.23167871 -46.75 22.6796875 C-42.3147283 17.81026168 -36.61967112 15.01062679 -30.875 11.9375 C-29.81023437 11.35162109 -28.74546875 10.76574219 -27.6484375 10.16210938 C-24.44721699 8.41192753 -21.2255213 6.7048904 -18 5 C-16.92137695 4.40461426 -15.84275391 3.80922852 -14.73144531 3.19580078 C-13.68827148 2.63747559 -12.64509766 2.07915039 -11.5703125 1.50390625 C-10.1783667 0.74509155 -10.1783667 0.74509155 -8.75830078 -0.02905273 C-5.38488738 -1.2165253 -3.418826 -0.9458931 0 0 Z " fill="#5737FE" transform="translate(155,442)"/>
<path d="M0 0 C4.13676904 1.95766216 8.08112992 4.19978542 12.01708984 6.52685547 C13.85644346 7.61403189 15.70601733 8.68163811 17.55859375 9.74609375 C37.0940188 21.04706004 37.0940188 21.04706004 38.93823242 25.02246094 C39.51092458 28.23969831 39.19850315 30.5774438 37.81640625 33.51953125 C35.68455875 36.43076386 33.73507014 37.73808877 30.625 39.5625 C30.0791626 39.88621582 29.5333252 40.20993164 28.97094727 40.54345703 C26.98911753 41.71081781 24.9953157 42.85584223 23 44 C22.14229004 44.49580566 21.28458008 44.99161133 20.40087891 45.50244141 C-2.24303909 58.58744499 -2.24303909 58.58744499 -8 58 C-10.95703069 56.72310038 -12.54000218 55.82249012 -14.12182617 52.99414062 C-15.36900776 48.74186511 -15.30525185 44.69138454 -15.30078125 40.28125 C-15.30506638 39.34575317 -15.3093515 38.41025635 -15.31376648 37.44641113 C-15.31949718 35.47290861 -15.32001934 33.49938497 -15.31567383 31.52587891 C-15.31251088 28.51037563 -15.33599911 25.49585106 -15.36132812 22.48046875 C-15.36360098 20.55989707 -15.36430468 18.63932275 -15.36328125 16.71875 C-15.372491 15.81966919 -15.38170074 14.92058838 -15.39118958 13.9942627 C-15.34714946 8.02417533 -14.38641004 4.65156671 -10.3125 0.125 C-6.70192311 -1.63149687 -3.7332288 -1.07049297 0 0 Z " fill="#5837FE" transform="translate(15,239)"/>
<path d="M0 0 C3.16176686 2.41292734 4.26409682 4.16891643 5 8 C5.09678341 9.40247609 5.14778579 10.80860725 5.16113281 12.21435547 C5.17074036 13.03555878 5.1803479 13.85676208 5.19024658 14.70285034 C5.19449646 15.5820816 5.19874634 16.46131287 5.203125 17.3671875 C5.20882507 18.27953156 5.21452515 19.19187561 5.22039795 20.13186646 C5.22983305 22.06006719 5.23637601 23.98828395 5.24023438 25.91650391 C5.24994185 28.85738383 5.28098002 31.79756517 5.3125 34.73828125 C5.31903043 36.6145792 5.32428075 38.49088213 5.328125 40.3671875 C5.3404718 41.2423703 5.3528186 42.1175531 5.36553955 43.01925659 C5.34716761 48.08504177 4.87900059 51.64270766 2 56 C-1.75343108 58.50228738 -3.54515593 58.38798747 -8 58 C-11.19140625 56.70703125 -11.19140625 56.70703125 -14.5625 54.8125 C-15.18165283 54.46662842 -15.80080566 54.12075684 -16.4387207 53.7644043 C-18.63580888 52.52646991 -20.81706717 51.26272067 -23 50 C-24.37333496 49.22076172 -24.37333496 49.22076172 -25.77441406 48.42578125 C-28.75336882 46.73478344 -31.72182861 45.0266751 -34.6875 43.3125 C-36.12234741 42.4932605 -36.12234741 42.4932605 -37.58618164 41.6574707 C-46.23741401 36.58089823 -46.23741401 36.58089823 -49 32 C-49.68726341 27.28733665 -48.69552556 24.83158513 -46 21 C-43.86206055 19.3659668 -43.86206055 19.3659668 -41.38671875 17.94921875 C-40.47446533 17.4190918 -39.56221191 16.88896484 -38.62231445 16.34277344 C-37.65382568 15.7965332 -36.68533691 15.25029297 -35.6875 14.6875 C-34.70160889 14.1193457 -33.71571777 13.55119141 -32.69995117 12.96582031 C-30.72325129 11.82852766 -28.7435499 10.69643443 -26.76074219 9.56982422 C-24.34549797 8.19645843 -21.93981069 6.80864494 -19.5390625 5.41015625 C-7.33249761 -1.67232402 -7.33249761 -1.67232402 0 0 Z " fill="#5737FE" transform="translate(507,239)"/>
<path d="M0 0 C2.64065235 0.97258872 4.93331487 2.32126541 7.3125 3.8125 C7.91900391 4.16892578 8.52550781 4.52535156 9.15039062 4.89257812 C16.47839541 9.28615635 16.47839541 9.28615635 17.875 13.875 C18.03378129 17.84453234 17.57819146 18.96683358 15 22 C12.13314515 24.23882174 9.12502242 26.14324967 6 28 C5.2884375 28.43054688 4.576875 28.86109375 3.84375 29.3046875 C0.57244074 31.12907151 -1.44941865 32 -5.25 32 C-8.44638579 30.8376779 -9.92848331 29.68529942 -12 27 C-13.24294043 23.42654625 -13.16731071 19.88020737 -13.1875 16.125 C-13.20167969 14.93132812 -13.21585937 13.73765625 -13.23046875 12.5078125 C-12.95317044 8.28723818 -12.05804555 4.76340925 -9.875 1.125 C-6.78294982 -0.73023011 -3.47080909 -0.44105926 0 0 Z " fill="#E92DFA" transform="translate(362,252)"/>
<path d="M0 0 C2.54481975 1.07118212 4.88094521 2.39978443 7.25 3.8125 C7.86101562 4.15603516 8.47203125 4.49957031 9.1015625 4.85351562 C12.47478436 6.8163183 15.05554977 8.57667214 17 12 C17.6031444 16.14661773 17.62680907 18.14336094 15.125 21.5625 C8.11993781 27.02644851 1.19681276 31.95139442 -8 31 C-10.96951809 28.93986989 -12.73262731 27.32812025 -13.46289062 23.70068359 C-13.63804211 20.95029007 -13.63260263 18.25484399 -13.5625 15.5 C-13.57345703 14.56285156 -13.58441406 13.62570312 -13.59570312 12.66015625 C-13.54910446 8.27988201 -13.4283068 5.69369935 -11.08984375 1.90625 C-7.22458769 -1.61944151 -5.05453521 -1.05732624 0 0 Z " fill="#E82DFA" transform="translate(200,343)"/>
<path d="M0 0 C3.24711091 2.33125911 4.30645558 4.15633793 5 8 C5.94520752 23.94128844 5.94520752 23.94128844 2 30 C-0.42693935 32.00850153 -1.55481285 32.03753031 -4.6875 31.7734375 C-8.6128911 30.85689571 -11.76041729 29.1658881 -15.1875 27.125 C-15.80302734 26.77308594 -16.41855469 26.42117188 -17.05273438 26.05859375 C-24.47230305 21.73386141 -24.47230305 21.73386141 -25.875 17.125 C-26.03013677 13.2465807 -25.30721494 12.09194996 -23 9 C-20.81791688 7.43223583 -18.75272881 6.07444332 -16.4375 4.75 C-15.84775391 4.399375 -15.25800781 4.04875 -14.65039062 3.6875 C-9.60796935 0.70449765 -5.96557537 -0.8623505 0 0 Z " fill="#E92DFA" transform="translate(158,252)"/>
<path d="M0 0 C2.36497439 1.86708505 3.66030715 3.32061431 5 6 C5.23873623 9.28613396 5.18519014 12.58114583 5.1875 15.875 C5.19974609 16.78636719 5.21199219 17.69773438 5.22460938 18.63671875 C5.22750977 19.95736328 5.22750977 19.95736328 5.23046875 21.3046875 C5.23457764 22.10890137 5.23868652 22.91311523 5.24291992 23.74169922 C4.89186658 27.00526041 3.94158452 29.23948943 1.375 31.3125 C-3.93022353 32.8482226 -7.5636193 31.76063659 -12.3046875 29.25 C-22.5153027 23.19220433 -22.5153027 23.19220433 -25 20 C-25.53081886 16.76200493 -25.78859969 15.06677657 -25 12 C-20.10857351 5.20366154 -8.28949767 -1.69173422 0 0 Z " fill="#E92DFA" transform="translate(320,161)"/>
<path d="M0 0 C2.59095721 1.15652695 4.79936593 2.28118035 7.1875 3.75 C7.79013672 4.09804687 8.39277344 4.44609375 9.01367188 4.8046875 C12.45267649 6.84317541 15.45021015 8.90426975 18 12 C18.57392839 15.94575768 18.59948156 18.08176972 16.3984375 21.453125 C13.62055365 24.40293 10.62599327 26.35387638 7.125 28.3125 C6.52558594 28.67150391 5.92617187 29.03050781 5.30859375 29.40039062 C1.37290384 31.64142881 -1.49290559 32.46377348 -6 32 C-8.60515574 31.13161475 -9.65851375 30.55907311 -11.09277344 28.2109375 C-12.09742762 25.76256606 -12.2581074 24.01260249 -12.265625 21.375 C-12.26820313 20.50359375 -12.27078125 19.6321875 -12.2734375 18.734375 C-12.26570312 17.83203125 -12.25796875 16.9296875 -12.25 16 C-12.25773438 15.09765625 -12.26546875 14.1953125 -12.2734375 13.265625 C-12.27085937 12.39421875 -12.26828125 11.5228125 -12.265625 10.625 C-12.26336914 9.83351562 -12.26111328 9.04203125 -12.25878906 8.2265625 C-11.96540732 5.70237245 -11.36420773 4.13904131 -10 2 C-6.22818317 -0.51454456 -4.48067023 -0.42805988 0 0 Z " fill="#E92DFA" transform="translate(199,161)"/>
<path d="M0 0 C2.68910968 2.16174782 3.80440973 3.77259626 4.35107422 7.203125 C4.50355481 9.81531784 4.49625957 12.38425152 4.4375 15 C4.44458984 15.88945312 4.45167969 16.77890625 4.45898438 17.6953125 C4.41168679 22.57060209 4.22972067 26.08327273 1 30 C-2.14481686 31.57240843 -4.5064857 31.29784224 -8 31 C-10.94649392 29.84413838 -13.59990049 28.30902612 -16.3125 26.6875 C-17.02728516 26.28337891 -17.74207031 25.87925781 -18.47851562 25.46289062 C-21.89743408 23.48114242 -23.75374464 22.36938304 -26 19 C-26.4375 15.625 -26.4375 15.625 -26 12 C-22.54121628 7.95509091 -18.67406337 5.25970698 -14.125 2.625 C-13.53847656 2.25761719 -12.95195312 1.89023437 -12.34765625 1.51171875 C-7.88169025 -1.08933837 -4.93017425 -1.55014935 0 0 Z " fill="#E82DFA" transform="translate(321,343)"/>
</svg>
